<svg id="Capa_1" enable-background="new 0 0 512 512" height="512" viewBox="0 0 512 512" width="512" xmlns="http://www.w3.org/2000/svg"><g><g><g><path d="m245 11c-58.662 0-112.499 20.627-154.68 55.01v379.98c42.181 34.383 96.018 55.01 154.68 55.01 135.31 0 245-109.69 245-245s-109.69-245-245-245z" fill="#543e5b"/></g></g><g><g><path d="m352 426-20-170 20-170c0-11.046 8.954-20 20-20h120c11.046 0 20 8.954 20 20v340c0 11.046-8.954 20-20 20h-120c-11.046 0-20-8.954-20-20z" fill="#1e9ef4"/></g></g><g><g><path d="m352 86v340c0 11.046-8.954 20-20 20h-241.68c-55.12-44.92-90.32-113.35-90.32-190s35.2-145.08 90.32-190h241.68c11.046 0 20 8.954 20 20z" fill="#49b1f7"/></g></g><g><g><path d="m149.529 426v-340c0-11.046 8.954-20 20-20h-79.209c-55.12 44.92-90.32 113.35-90.32 190s35.2 145.08 90.32 190h79.209c-11.045 0-20-8.954-20-20z" fill="#1e9ef4"/></g></g><g><g><path d="m367 86c0-2.757 2.243-5 5-5h120c2.757 0 5 2.243 5 5v340c0 2.757-2.243 5-5 5h-120c-2.757 0-5-2.243-5-5z" fill="#fff"/></g></g><g><g><path d="m427 426v-340c0-2.757 2.243-5 5-5h-60c-2.757 0-5 2.243-5 5v340c0 2.757 2.243 5 5 5h60c-2.757 0-5-2.243-5-5z" fill="#deeeff"/></g></g><g><g><path d="m474.5 96h-85c-4.142 0-7.5 3.358-7.5 7.5 0 4.142 3.358 7.5 7.5 7.5h85c4.142 0 7.5-3.358 7.5-7.5 0-4.142-3.358-7.5-7.5-7.5z" fill="#6c5475"/></g></g><g><g><path d="m412 103.5c0-4.142 3.358-7.5 7.5-7.5h-30c-4.142 0-7.5 3.358-7.5 7.5s3.358 7.5 7.5 7.5h30c-4.142 0-7.5-3.358-7.5-7.5z" fill="#543e5b"/></g></g><g><g><path d="m459.5 171h-70c-4.142 0-7.5 3.358-7.5 7.5 0 4.142 3.358 7.5 7.5 7.5h70c4.142 0 7.5-3.358 7.5-7.5 0-4.142-3.358-7.5-7.5-7.5z" fill="#6c5475"/></g></g><g><g><path d="m412 178.5c0-4.142 3.358-7.5 7.5-7.5h-30c-4.142 0-7.5 3.358-7.5 7.5s3.358 7.5 7.5 7.5h30c-4.142 0-7.5-3.358-7.5-7.5z" fill="#543e5b"/></g></g><g><g><path d="m459.5 256h-70c-4.142 0-7.5 3.358-7.5 7.5 0 4.142 3.358 7.5 7.5 7.5h70c4.142 0 7.5-3.358 7.5-7.5 0-4.142-3.358-7.5-7.5-7.5z" fill="#6c5475"/></g></g><g><g><path d="m412 263.5c0-4.142 3.358-7.5 7.5-7.5h-30c-4.142 0-7.5 3.358-7.5 7.5s3.358 7.5 7.5 7.5h30c-4.142 0-7.5-3.358-7.5-7.5z" fill="#543e5b"/></g></g><g><g><path d="m459.5 286h-70c-4.142 0-7.5 3.358-7.5 7.5 0 4.142 3.358 7.5 7.5 7.5h70c4.142 0 7.5-3.358 7.5-7.5 0-4.142-3.358-7.5-7.5-7.5z" fill="#6c5475"/></g></g><g><g><path d="m412 293.5c0-4.142 3.358-7.5 7.5-7.5h-30c-4.142 0-7.5 3.358-7.5 7.5s3.358 7.5 7.5 7.5h30c-4.142 0-7.5-3.358-7.5-7.5z" fill="#543e5b"/></g></g><g><g><path d="m459.5 361h-70c-4.142 0-7.5 3.358-7.5 7.5 0 4.142 3.358 7.5 7.5 7.5h70c4.142 0 7.5-3.358 7.5-7.5 0-4.142-3.358-7.5-7.5-7.5z" fill="#6c5475"/></g></g><g><g><path d="m412 368.5c0-4.142 3.358-7.5 7.5-7.5h-30c-4.142 0-7.5 3.358-7.5 7.5s3.358 7.5 7.5 7.5h30c-4.142 0-7.5-3.358-7.5-7.5z" fill="#543e5b"/></g></g><g><g><path d="m459.5 126h-70c-4.142 0-7.5 3.358-7.5 7.5v15c0 4.142 3.358 7.5 7.5 7.5h70c4.142 0 7.5-3.358 7.5-7.5v-15c0-4.142-3.358-7.5-7.5-7.5z" fill="#6c5475"/></g></g><g><g><path d="m412 148.5v-15c0-4.142 3.358-7.5 7.5-7.5h-30c-4.142 0-7.5 3.358-7.5 7.5v15c0 4.142 3.358 7.5 7.5 7.5h30c-4.142 0-7.5-3.358-7.5-7.5z" fill="#543e5b"/></g></g><g><g><path d="m459.5 201h-70c-4.142 0-7.5 3.358-7.5 7.5v25c0 4.142 3.358 7.5 7.5 7.5h70c4.142 0 7.5-3.358 7.5-7.5v-25c0-4.142-3.358-7.5-7.5-7.5z" fill="#6c5475"/></g></g><g><g><path d="m412 233.5v-25c0-4.142 3.358-7.5 7.5-7.5h-30c-4.142 0-7.5 3.358-7.5 7.5v25c0 4.142 3.358 7.5 7.5 7.5h30c-4.142 0-7.5-3.358-7.5-7.5z" fill="#543e5b"/></g></g><g><g><path d="m459.5 316h-70c-4.142 0-7.5 3.358-7.5 7.5v15c0 4.142 3.358 7.5 7.5 7.5h70c4.142 0 7.5-3.358 7.5-7.5v-15c0-4.142-3.358-7.5-7.5-7.5z" fill="#6c5475"/></g></g><g><g><path d="m412 338.5v-15c0-4.142 3.358-7.5 7.5-7.5h-30c-4.142 0-7.5 3.358-7.5 7.5v15c0 4.142 3.358 7.5 7.5 7.5h30c-4.142 0-7.5-3.358-7.5-7.5z" fill="#543e5b"/></g></g><g><g><path d="m474.5 391h-85c-4.142 0-7.5 3.358-7.5 7.5v10c0 4.142 3.358 7.5 7.5 7.5h85c4.142 0 7.5-3.358 7.5-7.5v-10c0-4.142-3.358-7.5-7.5-7.5z" fill="#6c5475"/></g></g><g><g><path d="m412 408.5v-10c0-4.142 3.358-7.5 7.5-7.5h-30c-4.142 0-7.5 3.358-7.5 7.5v10c0 4.142 3.358 7.5 7.5 7.5h30c-4.142 0-7.5-3.358-7.5-7.5z" fill="#543e5b"/></g></g><g><g><g><path d="m311.737 202.573-119.737 13.684-119.737-13.684c-5.668 0-10.263-4.595-10.263-10.263v-20.526c0-5.668 4.595-10.263 10.263-10.263h239.474c5.668 0 10.263 4.595 10.263 10.263v20.526c0 5.668-4.595 10.263-10.263 10.263z" fill="#fff"/></g></g><g><g><path d="m127 202.573c-5.668 0-10.263-4.595-10.263-10.263v-20.526c0-5.668 4.595-10.263 10.263-10.263h-54.737c-5.668 0-10.263 4.595-10.263 10.263v20.526c0 5.668 4.595 10.263 10.263 10.263l54.737 6.255z" fill="#deeeff"/></g></g><g><g><path d="m311.737 202.573h-99.211l-20.526 13.684-20.526-13.684h-99.211c-5.668 0-10.263 4.595-10.263 10.263v179.474c0 5.668 4.595 10.263 10.263 10.263h99.211l20.526-11.573 20.526 11.573h99.211c5.668 0 10.263-4.595 10.263-10.263v-179.474c0-5.668-4.595-10.263-10.263-10.263z" fill="#deeeff"/></g></g><g><g><path d="m116.737 392.31v-179.474c0-5.668 4.595-10.263 10.263-10.263h-54.737c-5.668 0-10.263 4.595-10.263 10.263v179.474c0 5.668 4.595 10.263 10.263 10.263h54.737c-5.668 0-10.263-4.595-10.263-10.263z" fill="#d3dcfb"/></g></g><g><g><path d="m171.474 213.915v-52.395h41.052v52.395l-20.526 2.342z" fill="#ffc839"/></g></g><g><g><g><path d="m199.51 147.836s18.141 22.537 47.982 36.561c16.756 7.874 33.463-10.999 23.737-26.752-3.712-6.013-3.712-13.606 0-19.618 9.726-15.753-6.981-34.626-23.737-26.752-29.841 14.024-47.982 36.561-47.982 36.561z" fill="#ffdd40"/></g></g><g><g><path d="m253.99 120.211c4.276-4.442-.702-11.591-6.308-9.023-.063.029-.126.058-.189.088-29.841 14.024-47.982 36.561-47.982 36.561s18.141 22.537 47.982 36.561c.063.03.126.059.189.088 5.606 2.567 10.585-4.581 6.308-9.023-14.623-15.191-14.623-40.063 0-55.252z" fill="#ffc839"/></g></g><g><g><path d="m184.49 147.836s-18.141 22.537-47.982 36.561c-16.756 7.874-33.463-10.999-23.737-26.752 3.712-6.013 3.712-13.606 0-19.618-9.726-15.753 6.981-34.626 23.737-26.752 29.841 14.024 47.982 36.561 47.982 36.561z" fill="#ffdd40"/></g></g><g><g><path d="m130.01 120.211c-4.276-4.442.702-11.591 6.308-9.023.063.029.126.058.189.088 29.841 14.024 47.982 36.561 47.982 36.561s-18.141 22.537-47.982 36.561c-.063.03-.126.059-.189.088-5.606 2.567-10.585-4.581-6.308-9.023 14.623-15.191 14.623-40.063 0-55.252z" fill="#ffc839"/></g></g><g><g><path d="m204.212 121.606c-2.442-.239-4.744.303-6.686 1.406-3.425 1.945-7.627 1.945-11.052 0-1.942-1.103-4.244-1.645-6.686-1.406-5.587.546-10.131 5.836-10.131 11.449v29.561c0 5.614 4.544 10.903 10.131 11.449 2.442.239 4.744-.303 6.686-1.406 3.425-1.945 7.627-1.945 11.052 0 1.942 1.103 4.244 1.645 6.686 1.406 5.587-.546 10.131-5.836 10.131-11.449v-29.561c0-5.613-4.544-10.902-10.131-11.449z" fill="#fee884"/></g></g><g><g><path d="m191.812 162.629v-29.587c0-5.61 4.024-10.401 9.374-11.328-1.228.208-2.389.61-3.448 1.18-3.528 1.902-7.801 2.071-11.291.102-1.892-1.068-4.125-1.604-6.495-1.405-5.675.475-10.294 5.771-10.294 11.466v29.557c0 5.695 4.619 10.991 10.294 11.466 2.37.198 4.602-.338 6.495-1.405 3.491-1.969 7.763-1.8 11.291.102 1.058.57 2.22.972 3.448 1.18-5.35-.927-9.374-5.717-9.374-11.328z" fill="#ffdd40"/></g></g></g><g><g><path d="m171.474 202.573h41.053v200h-41.053z" fill="#ffb332"/></g></g></g></g></svg>