<svg height="512pt" viewBox="-5 0 512 512.00006" width="512pt" xmlns="http://www.w3.org/2000/svg"><path d="m502.1875 261.425781c0 138.386719-112.1875 250.574219-250.574219 250.574219-138.390625 0-250.574219-112.1875-250.574219-250.574219s112.183594-250.574219 250.574219-250.574219c138.386719 0 250.574219 112.1875 250.574219 250.574219zm0 0" fill="#50309e"/><path d="m391.714844 7.285156c-14.75-9.015625-32.734375-9.703125-48.109375-1.839844-29.835938 15.261719-55.824219 38.140626-75.148438 66.171876l-17.839843 25.871093-17.886719-25.835937c-19.378907-27.992188-45.410157-50.828125-75.277344-66.035156-15.386719-7.832032-33.367187-7.109376-48.101563 1.933593-15.394531 9.445313-24.574218 26.085938-24.554687 44.519531.023437 28.546876 22.625 51.75 50.378906 51.726563l111.164063-.105469 119.730468-.113281c27.753907-.027344 50.308594-23.273437 50.28125-51.820313-.015624-18.429687-9.222656-35.054687-24.636718-44.472656zm-256.558594 75.691406c-16.273438.015626-29.523438-13.859374-29.539062-30.925781-.011719-11.128906 5.453124-21.128906 14.621093-26.753906 4.644531-2.851563 9.71875-4.285156 14.820313-4.292969 4.382812-.003906 8.785156 1.050782 12.949218 3.171875 26.589844 13.535157 49.804688 33.832031 67.183594 58.722657zm230.894531-.21875-80.035156.074219c17.332031-24.921875 40.507813-45.261719 67.074219-58.851562 4.160156-2.128907 8.5625-3.1875 12.945312-3.191407 5.097656-.007812 10.175782 1.417969 14.824219 4.261719 9.179687 5.609375 14.664063 15.597657 14.675781 26.726563.015625 17.066406-13.210937 30.964844-29.484375 30.980468zm0 0" fill="#fdd33a"/><path d="m254.15625 103.683594 67.597656-.0625c-1.839844-6.921875-3.601562-13.871094-5.371094-20.816406l-30.367187.027343c6.855469-9.859375 14.640625-18.984375 23.171875-27.277343-2.085938-7.417969-4.304688-14.796876-6.773438-22.089844-12.769531 11.199218-24.214843 24.019531-33.957031 38.152344l-13.539062 19.632812c-.191407 4.132812-.621094 8.261719-.761719 12.433594zm0 0" fill="#f2bc36"/><path d="m212.050781 78.953125v33.035156h77.046875v-33.035156c0-5.414063-4.386718-9.800781-9.800781-9.800781h-57.441406c-5.414063 0-9.804688 4.386718-9.804688 9.800781zm0 0" fill="#fdd33a"/><path d="m246.339844 69.152344h-24.484375c-5.414063 0-9.804688 4.390625-9.804688 9.800781v33.035156h24.484375v-33.035156c0-5.414063 4.386719-9.800781 9.804688-9.800781zm0 0" fill="#f2bc36"/><path d="m485.808594 103.6875h-470.464844c-8.472656 0-15.34375 6.867188-15.34375 15.339844v54.992187c0 8.472657 6.871094 15.34375 15.34375 15.34375h12.582031v185.078125c41.316407 81.609375 125.960938 137.558594 223.6875 137.558594 96.117188 0 179.582031-54.132812 221.609375-133.5625v-189.074219h12.585938c8.472656 0 15.339844-6.871093 15.339844-15.34375v-54.992187c0-8.472656-6.867188-15.339844-15.339844-15.339844zm0 0" fill="#ef3a50"/><path d="m485.808594 103.6875h-470.464844c-8.472656 0-15.34375 6.867188-15.34375 15.339844v54.992187c0 8.472657 6.871094 15.34375 15.34375 15.34375h12.582031v185.082031c14.246094 28.136719 33.640625 53.21875 56.949219 74.015626v-230.167969c0-8.472657 6.867188-15.34375 15.339844-15.34375h104.039062v304.570312c6.039063 1.15625 12.15625 2.09375 18.339844 2.808594.46875-.195313.9375-.394531 1.40625-.621094v-306.757812h249.222656v-13.585938h12.585938c8.472656 0 15.339844-6.871093 15.339844-15.34375v-54.992187c0-8.472656-6.867188-15.339844-15.339844-15.339844zm0 0" fill="#ce2844"/><path d="m485.808594 103.6875h-470.46875c-8.472656 0-15.339844 6.867188-15.339844 15.339844v54.992187c0 8.472657 6.867188 15.34375 15.339844 15.34375h470.46875c8.472656 0 15.339844-6.871093 15.339844-15.34375v-54.992187c0-8.472656-6.867188-15.339844-15.339844-15.339844zm0 0" fill="#ff4a69"/><path d="m87.746094 174.019531v-54.992187c0-8.472656 6.867187-15.339844 15.339844-15.339844h-87.742188c-8.472656 0-15.34375 6.867188-15.34375 15.339844v54.992187c0 8.472657 6.871094 15.34375 15.34375 15.34375h87.742188c-8.472657 0-15.339844-6.871093-15.339844-15.34375zm0 0" fill="#ef3a50"/><path d="m204.253906 103.6875h19.746094v85.675781h-19.746094zm0 0" fill="#ef3a50"/><path d="m215.570312 189.363281v320.0625c11.769532 1.695313 23.804688 2.574219 36.042969 2.574219 11.523438 0 22.859375-.785156 33.96875-2.292969v-320.34375zm0 0" fill="#fdd33a"/><path d="m215.570312 189.363281v320.0625c6.898438.992188 13.894532 1.699219 20.964844 2.121094v-322.183594zm0 0" fill="#e0af24"/><path d="m215.570312 103.6875h70.007813v85.675781h-70.007813zm0 0" fill="#ffda66"/><path d="m215.570312 103.6875h20.964844v85.675781h-20.964844zm0 0" fill="#f2bc36"/></svg>